<?xml version="1.0" standalone="no"?><!DOCTYPE svg PUBLIC "-//W3C//DTD SVG 1.1//EN" "http://www.w3.org/Graphics/SVG/1.1/DTD/svg11.dtd"><svg t="1712991710773" class="icon" viewBox="0 0 1131 1024" version="1.1" xmlns="http://www.w3.org/2000/svg" p-id="42507" xmlns:xlink="http://www.w3.org/1999/xlink" width="220.8984375" height="200"><path d="M240.463627 411.866712c64.991237-44.651208 129.595046-89.980417 195.070569-133.663051 120.974747-80.778975 242.14321-161.364235 364.377102-240.399779A209.502305 209.502305 0 0 1 876.13798 7.778124a63.635235 63.635235 0 0 1 50.172073 17.434311c9.104585 9.685728 12.785161 39.2272 5.133436 48.428642-38.742914 44.263779-76.807826 90.174131-123.105607 125.139611-118.940745 89.786702-242.14321 174.343111-363.311672 260.739808a23.245748 23.245748 0 0 0-10.266872 17.434311c11.622874-7.458011 23.53632-14.528593 34.965479-22.277175 143.445637-96.857284 286.406988-194.779998 430.627484-290.571852a530.099914 530.099914 0 0 1 96.857284-47.460069c26.151467-10.460587 56.177225-14.722307 74.192679 14.238021s8.136012 58.11437-15.012879 78.357543c-51.237503 45.716638-104.412152 89.302416-157.489943 132.888193-21.502317 17.628026-44.94178 32.931476-64.89438 52.884077 59.276658-35.546623 117.778457-72.255534 178.120545-105.865011a177.92683 177.92683 0 0 1 70.60896-22.083461c14.62545-1.162287 38.742914 9.685728 43.682635 21.502317 6.78001 15.69088 6.683153 43.682635-3.390005 55.692938a933.21993 933.21993 0 0 1-99.666145 98.697572c-29.057185 25.764037-60.826374 48.428642-88.527558 76.129825 24.989179-9.685728 49.300357-23.342605 75.25811-28.282326 15.981452-3.099433 40.873774 1.452859 49.881501 12.300875a58.11437 58.11437 0 0 1 5.424008 52.109218 206.887158 206.887158 0 0 1-51.043789 64.119522C906.066881 711.640006 796.037007 801.910994 687.653706 894.119128c-8.039155 6.876867-7.84544 23.148891-12.010303 34.96548-4.842864 13.753734-6.392581 32.059761-16.175167 40.002058a356.919091 356.919091 0 0 1-78.841829 49.494072c-15.012879 6.683153-46.104067 7.748583-51.043788 0-9.685728-15.497165-13.850592-43.973207-5.520865-58.11437a331.445625 331.445625 0 0 1 67.800098-78.938686c64.991237-57.339512 132.403907-111.870163 196.232857-172.115394-27.313754 18.402884-54.433794 37.193197-82.038119 55.208652q-100.828432 65.669238-202.141151 130.563619a276.236973 276.236973 0 0 1-35.643481 17.531168c-25.279751 11.429159-49.687787 11.913446-69.252958-10.654301-20.824316-24.117464-12.204018-50.656359 6.005152-68.284385 50.075216-48.428642 101.506433-95.888711 156.133941-139.08706 67.800099-53.658935 139.280774-102.668721 205.821728-159.427089-11.816589 7.458011-23.826892 14.528593-35.546623 22.277175-107.899014 70.027816-214.442026 142.089635-322.147326 211.536308a217.057173 217.057173 0 0 1-82.71612 32.059761 73.320964 73.320964 0 0 1-54.433794-21.986603c-18.402884-19.371457-6.586295-44.94178 8.717156-61.891805a774.858271 774.858271 0 0 1 88.333843-85.428124c48.428642-38.742914 100.150431-74.773823 150.613076-111.676448a85.428124 85.428124 0 0 1 15.787737-7.264297l-8.232869-9.685728c-35.159194 23.439463-69.156101 48.428642-105.574439 69.930959-64.216379 37.193197-129.691903 72.255534-195.167427 107.414728-25.860895 13.850592-54.821223 8.91087-66.056668-15.594023-8.039155-17.82174-6.005152-52.399791 6.295724-65.088095a1771.713436 1771.713436 0 0 1 154.971654-139.183917c48.428642-38.742914 100.344146-73.708393 146.54507-116.22874-43.682635 29.832043-86.106125 61.891804-131.435334 89.108701-67.800099 40.680059-137.246771 78.4544-206.596586 116.22874-25.957752 14.238021-50.075216 6.973724-67.800099-15.594022s-8.814013-48.428642 8.039155-65.475524c51.043789-52.690362 104.605867-102.959293 157.296229-154.003081a136.956199 136.956199 0 0 0 29.735186-34.868623c-45.813495 29.057185-90.852132 60.051516-137.634201 87.849557a198.170003 198.170003 0 0 1-68.865528 27.79804c-40.583202 6.102009-64.313236-25.473466-43.295206-60.923231 27.991755-47.266355 64.410094-89.592988 97.438427-133.663052 6.392581-8.523441 14.334878-15.787737 27.216897-29.735186-14.916022 0-25.279751 3.099433-31.866046-0.678001-12.49459-7.070582-29.541472-16.659453-31.866047-27.79804s8.136012-30.122615 18.596599-37.386912c40.29263-27.991755 82.909835-52.593505 124.655324-78.4544 5.133436-3.19629 9.685728-7.070582 15.012879-9.685728 23.439463-12.397732 48.428642-29.057185 72.255534-4.64915s9.685728 52.399791-7.264296 74.483251c-43.198349 56.370939-88.333843 111.289019-138.215344 173.66511 50.559502-34.674908 94.338994-65.766096 139.280774-95.016995q83.10355-54.046364 167.95053-105.283868c23.923749-14.431735 50.850074-21.018031 71.577533 4.939722s9.685728 54.530651-10.36373 74.580108c-65.281809 64.216379-132.30705 126.689327-199.526004 189.065418-28.18547 26.151467-58.11437 50.26893-87.171556 75.354967z" fill="#bd1039" p-id="42508"></path></svg>