<?xml version="1.0" standalone="no"?><!DOCTYPE svg PUBLIC "-//W3C//DTD SVG 1.1//EN" "http://www.w3.org/Graphics/SVG/1.1/DTD/svg11.dtd"><svg t="1712998168892" class="icon" viewBox="0 0 1024 1024" version="1.1" xmlns="http://www.w3.org/2000/svg" p-id="771" xmlns:xlink="http://www.w3.org/1999/xlink" width="200" height="200"><path d="M919.2768 671.9872l7.04 2.5536a41.6 41.6 0 0 1-27.1872 78.6176l-1.4464-0.4992-2.1504-0.7872a557.6576 557.6576 0 0 0-381.088-0.9728l-4.672 1.7088-26.9184 9.9776a518.5408 518.5408 0 0 1-387.4752-10.848 41.6 41.6 0 0 1 33.2416-76.2752 435.3408 435.3408 0 0 0 321.024 10.6752l4.288-1.5616 26.912-9.984a640.8576 640.8576 0 0 1 438.432-2.6048z m0-204.8l7.04 2.5536a41.6 41.6 0 0 1-27.1872 78.6176l-1.4464-0.4992-2.1504-0.7872a557.6576 557.6576 0 0 0-381.088-0.9728l-4.672 1.7088-26.9184 9.9776a518.5408 518.5408 0 0 1-387.4752-10.848 41.6 41.6 0 0 1 33.2416-76.2752 435.3408 435.3408 0 0 0 321.024 10.6752l4.288-1.5616 26.912-9.984a640.8576 640.8576 0 0 1 438.432-2.6048z m0-204.8l7.04 2.5536a41.6 41.6 0 0 1-27.1872 78.6176l-1.4464-0.4992-2.1504-0.7872a557.6576 557.6576 0 0 0-381.088-0.9728l-4.672 1.7088-26.9184 9.9776a518.5408 518.5408 0 0 1-387.4752-10.848 41.6 41.6 0 0 1 33.2416-76.2752 435.3408 435.3408 0 0 0 321.024 10.6752l4.288-1.5616 26.912-9.984a640.8576 640.8576 0 0 1 438.432-2.6048z" p-id="772" fill="#41b2ee" data-spm-anchor-id="a313x.icontype_histories.0.i2.631c3a81MfPdHl" class="selected"></path></svg>